<svg width="20" height="20" viewBox="0 0 20 20" fill="none" xmlns="http://www.w3.org/2000/svg">
<path d="M18.3335 14.0999V16.5999C18.3344 16.832 18.2869 17.0617 18.1939 17.2744C18.1009 17.487 17.9646 17.6779 17.7936 17.8348C17.6225 17.9917 17.4206 18.1112 17.2008 18.1855C16.9809 18.2599 16.748 18.2875 16.5168 18.2666C13.9525 17.988 11.4893 17.1117 9.32516 15.7083C7.31168 14.4288 5.60461 12.7217 4.32516 10.7083C2.91681 8.53426 2.04036 6.05908 1.76683 3.48325C1.746 3.25281 1.77339 3.02055 1.84724 2.80127C1.9211 2.58199 2.0398 2.38049 2.1958 2.2096C2.35179 2.03871 2.54166 1.90218 2.75332 1.80869C2.96497 1.7152 3.19378 1.6668 3.42516 1.66658H5.92516C6.32958 1.6626 6.72165 1.80582 7.0283 2.06953C7.33494 2.33324 7.53522 2.69946 7.59183 3.09992C7.69735 3.89997 7.89304 4.68552 8.17516 5.44158C8.28728 5.73985 8.31155 6.06401 8.24508 6.37565C8.17862 6.68729 8.02421 6.97334 7.80016 7.19992L6.74183 8.25825C7.92812 10.3445 9.65554 12.072 11.7418 13.2583L12.8002 12.1999C13.0267 11.9759 13.3128 11.8215 13.6244 11.755C13.9361 11.6885 14.2602 11.7128 14.5585 11.8249C15.3146 12.107 16.1001 12.3027 16.9002 12.4083C17.305 12.4654 17.6747 12.6693 17.9389 12.9812C18.2032 13.2931 18.3436 13.6912 18.3335 14.0999Z" stroke="#999999" stroke-linecap="round" stroke-linejoin="round"/>
</svg>
