<svg width="40" height="40" viewBox="0 0 40 40" fill="none" xmlns="http://www.w3.org/2000/svg">
<path d="M20 40C31.0457 40 40 31.0457 40 20C40 8.9543 31.0457 0 20 0C8.9543 0 0 8.9543 0 20C0 31.0457 8.9543 40 20 40Z" fill="#BDCDD8"/>
<path d="M28.7706 15.0252H23.0077V13.5937H28.7711V15.0252H28.7706ZM19.1712 20.8952C19.543 21.4711 19.7288 22.1705 19.7288 22.9915C19.7288 23.8405 19.5193 24.6022 19.0931 25.275C18.8219 25.7202 18.4853 26.0963 18.0807 26.3991C17.6252 26.7492 17.0858 26.9893 16.4657 27.1176C15.8436 27.2461 15.1704 27.311 14.4451 27.311H8V13H14.9114C16.6535 13.0283 17.8886 13.5331 18.6179 14.5243C19.0555 15.1322 19.2723 15.8617 19.2723 16.7096C19.2723 17.5846 19.0529 18.2846 18.611 18.8165C18.3652 19.1148 18.002 19.386 17.5213 19.6309C18.2494 19.8974 18.8019 20.3172 19.1712 20.8952ZM11.3005 18.6421H14.3288C14.9511 18.6421 15.4541 18.5238 15.8416 18.2874C16.2288 18.0513 16.422 17.6316 16.422 17.0291C16.422 16.3634 16.1662 15.9216 15.6533 15.7089C15.2125 15.5611 14.6485 15.4851 13.9641 15.4851H11.3005V18.6421ZM16.7136 22.7871C16.7136 22.0437 16.4098 21.5298 15.8033 21.254C15.4642 21.0973 14.9857 21.0172 14.3722 21.0114H11.3005V24.8252H14.3247C14.946 24.8252 15.4269 24.7439 15.7739 24.5742C16.3998 24.2623 16.7136 23.6686 16.7136 22.7871ZM30.9089 20.4589C30.9785 20.9271 31.01 21.6064 30.9972 22.4944H23.5336C23.5747 23.5246 23.9304 24.245 24.6049 24.6573C25.0117 24.9158 25.5048 25.0421 26.0823 25.0421C26.6913 25.0421 27.1876 24.8881 27.5697 24.5717C27.7779 24.4039 27.9615 24.1672 28.1203 23.8684H30.8559C30.7843 24.4769 30.4549 25.094 29.8629 25.7211C28.9458 26.7179 27.6596 27.2177 26.0077 27.2177C24.6431 27.2177 23.4404 26.7962 22.3965 25.9562C21.3561 25.1133 20.8335 23.7462 20.8335 21.8497C20.8335 20.0714 21.3027 18.7102 22.244 17.7628C23.1889 16.8136 24.4083 16.3412 25.9114 16.3412C26.8023 16.3412 27.6054 16.5004 28.3219 16.8205C29.0361 17.141 29.6264 17.6454 30.0913 18.3385C30.5121 18.949 30.7826 19.6548 30.9089 20.4589ZM28.2161 20.7259C28.166 20.0136 27.9281 19.4744 27.4999 19.1059C27.0751 18.7364 26.5445 18.5509 25.9114 18.5509C25.2223 18.5509 24.6903 18.7492 24.3122 19.1389C23.9316 19.5278 23.6948 20.0566 23.5977 20.726H28.2161V20.7259Z" fill="#2E3646"/>
</svg>
