<svg width="40" height="40" viewBox="0 0 40 40" fill="none" xmlns="http://www.w3.org/2000/svg">
<path d="M20 40C31.0457 40 40 31.0457 40 20C40 8.9543 31.0457 0 20 0C8.9543 0 0 8.9543 0 20C0 31.0457 8.9543 40 20 40Z" fill="#BDCDD8"/>
<path d="M24.0419 10H15.9581C12.6728 10 10 12.6728 10 15.9581V24.0419C10 27.3272 12.6728 30 15.9581 30H24.0419C27.3272 30 30 27.3272 30 24.0419V15.9581C30 12.6728 27.3272 10 24.0419 10ZM27.988 24.0419C27.988 26.2213 26.2213 27.988 24.0419 27.988H15.9581C13.7788 27.988 12.012 26.2213 12.012 24.0419V15.9581C12.012 13.7787 13.7788 12.012 15.9581 12.012H24.0419C26.2213 12.012 27.988 13.7787 27.988 15.9581V24.0419Z" fill="#2E3646"/>
<path d="M20 14.8276C17.1477 14.8276 14.8273 17.1481 14.8273 20.0003C14.8273 22.8525 17.1477 25.173 20 25.173C22.8522 25.173 25.1727 22.8525 25.1727 20.0003C25.1727 17.148 22.8522 14.8276 20 14.8276ZM20 23.161C18.2544 23.161 16.8393 21.7459 16.8393 20.0003C16.8393 18.2547 18.2544 16.8396 20 16.8396C21.7456 16.8396 23.1607 18.2547 23.1607 20.0003C23.1607 21.7459 21.7456 23.161 20 23.161Z" fill="#2E3646"/>
<path d="M25.1827 16.1055C25.8673 16.1055 26.4222 15.5505 26.4222 14.866C26.4222 14.1814 25.8673 13.6265 25.1827 13.6265C24.4982 13.6265 23.9432 14.1814 23.9432 14.866C23.9432 15.5505 24.4982 16.1055 25.1827 16.1055Z" fill="#2E3646"/>
</svg>
