<svg width="211" height="67" viewBox="0 0 211 67" fill="none" xmlns="http://www.w3.org/2000/svg">
<g id="Group Copy">
<path id="TSEKH" fill-rule="evenodd" clip-rule="evenodd" d="M24.9076 66.2566H11.7723V33.3833H0V23.3668H36.6799V33.3833H24.9076V66.2566ZM40.3899 53.2681H52.472C52.9676 55.854 56.0966 57.3401 59.8141 57.3401C63.7485 57.3401 66.1649 55.7945 66.1649 53.6842C66.1649 51.6631 64.4301 50.8011 59.4114 49.9392L54.9193 49.1664C46.0282 47.6505 41.1644 43.3407 41.1644 36.6829C41.1644 28.0633 48.9093 22.624 59.5353 22.624C71.4934 22.624 78.185 27.9444 78.247 36.4154H66.1649C66.072 33.7998 63.2838 32.2839 59.6902 32.2839C56.0346 32.2839 54.1758 33.8295 54.1758 35.7615C54.1758 37.6934 56.0966 38.6148 60.5576 39.3876L65.0497 40.1604C74.6534 41.8249 79.1764 45.5997 79.1764 52.5548C79.1764 61.3824 71.9891 67 59.6592 67C48.0728 67 40.4209 62.0363 40.3899 53.2681ZM116.066 56.2401V66.2566H84.5291V23.3668H116.066V33.3833H97.6644V40.3087H114.92V49.3444H97.6644V56.2401H116.066ZM135.793 66.2566H122.658V23.3668H135.793V41.5571H136.041L149.858 23.3668H163.644L148.929 42.419L164.325 66.2566H149.052L139.294 50.5036L135.793 55.0214V66.2566ZM209.889 66.2566H196.753V49.6714H181.016V66.2566H167.88V23.3668H181.016V39.6548H196.753V23.3668H209.889V66.2566Z" fill="white"/>
<path id="Rectangle" d="M168.151 0H210.402V14.0474H168.151V0Z" fill="white"/>
</g>
</svg>
