<svg width="520" height="557" viewBox="0 0 520 557" fill="none" xmlns="http://www.w3.org/2000/svg">
<g filter="url(#filter0_d)">
<rect x="50" y="20" width="440" height="477" rx="20" fill="white"/>
<rect x="52.5" y="22.5" width="435" height="472" rx="17.5" stroke="#3A3A3A" stroke-width="5"/>
</g>
<mask id="mask0" mask-type="alpha" maskUnits="userSpaceOnUse" x="50" y="20" width="440" height="477">
<rect x="52.5" y="22.5" width="435" height="472" rx="17.5" fill="white" stroke="#3A3A3A" stroke-width="5"/>
</mask>
<g mask="url(#mask0)">
<rect x="72" y="31" width="396" height="455" fill="white"/>
<path d="M165.144 104.02H116.772C114.023 104.02 111.741 101.822 111.741 99.0455V51.2063C111.741 48.4875 113.964 46.2314 116.772 46.2314H165.202C167.951 46.2314 170.232 48.4296 170.232 51.2063V99.1034C170.174 101.822 167.951 104.02 165.144 104.02Z" fill="white"/>
<path d="M165.144 104.252H116.772C113.906 104.252 111.508 101.938 111.508 99.0455V51.2062C111.508 48.3139 113.847 46 116.772 46H165.202C168.068 46 170.466 48.3139 170.466 51.2062V99.1033C170.408 101.938 168.068 104.252 165.144 104.252ZM116.772 46.4628C114.081 46.4628 111.976 48.5453 111.976 51.2062V99.1033C111.976 101.706 114.14 103.847 116.772 103.847H165.202C167.834 103.847 169.999 101.706 169.999 99.1033V51.2062C169.999 48.6031 167.834 46.4628 165.202 46.4628H116.772Z" fill="#D8DADB"/>
<path d="M229.601 104.02H181.171C178.422 104.02 176.141 101.822 176.141 99.0455V51.2063C176.141 48.4875 178.363 46.2314 181.171 46.2314H229.601C232.35 46.2314 234.631 48.4296 234.631 51.2063V99.1034C234.631 101.822 232.35 104.02 229.601 104.02Z" fill="white"/>
<path d="M229.6 104.252H181.169C178.303 104.252 175.905 101.938 175.905 99.0455V51.2062C175.905 48.3717 178.245 46 181.169 46H229.6C232.466 46 234.864 48.3139 234.864 51.2062V99.1033C234.864 101.938 232.466 104.252 229.6 104.252ZM181.169 46.4628C178.537 46.4628 176.373 48.6031 176.373 51.2062V99.1033C176.373 101.706 178.537 103.847 181.169 103.847H229.6C232.232 103.847 234.396 101.706 234.396 99.1033V51.2062C234.396 48.6031 232.232 46.4628 229.6 46.4628H181.169Z" fill="#D8DADB"/>
<path d="M293.999 104.02H245.569C242.82 104.02 240.538 101.822 240.538 99.0455V51.2063C240.538 48.4875 242.761 46.2314 245.569 46.2314H293.999C296.748 46.2314 299.029 48.4296 299.029 51.2063V99.1034C299.029 101.822 296.807 104.02 293.999 104.02Z" fill="white"/>
<path d="M293.998 104.252H245.568C242.702 104.252 240.303 101.938 240.303 99.0455V51.2062C240.303 48.3717 242.643 46 245.568 46H293.998C296.864 46 299.262 48.3139 299.262 51.2062V99.1033C299.262 101.938 296.922 104.252 293.998 104.252ZM245.626 46.4628C242.994 46.4628 240.83 48.6031 240.83 51.2062V99.1033C240.83 101.706 242.994 103.847 245.626 103.847H293.998C296.63 103.847 298.794 101.706 298.794 99.1033V51.2062C298.794 48.6031 296.63 46.4628 293.998 46.4628H245.626Z" fill="#C3CCD7"/>
<path d="M358.456 104.02H310.026C307.277 104.02 304.996 101.822 304.996 99.0455V51.2063C304.996 48.4875 307.219 46.2314 310.026 46.2314H358.456C361.205 46.2314 363.487 48.4296 363.487 51.2063V99.1034C363.487 101.822 361.205 104.02 358.456 104.02Z" fill="white"/>
<path d="M358.455 104.252H310.025C307.159 104.252 304.761 101.938 304.761 99.0455V51.2062C304.761 48.3717 307.1 46 310.025 46H358.455C361.321 46 363.719 48.3139 363.719 51.2062V99.1033C363.719 101.938 361.321 104.252 358.455 104.252ZM310.025 46.4628C307.393 46.4628 305.229 48.6031 305.229 51.2062V99.1033C305.229 101.706 307.393 103.847 310.025 103.847H358.455C361.087 103.847 363.251 101.706 363.251 99.1033V51.2062C363.251 48.6031 361.087 46.4628 358.455 46.4628H310.025Z" fill="#C3CCD7"/>
<path d="M422.912 104.02H374.482C371.732 104.02 369.451 101.822 369.451 99.0455V51.2063C369.451 48.4875 371.674 46.2314 374.482 46.2314H422.912C425.661 46.2314 427.942 48.4296 427.942 51.2063V99.1034C427.942 101.822 425.661 104.02 422.912 104.02Z" fill="white"/>
<path d="M422.912 104.252H374.482C371.616 104.252 369.218 101.938 369.218 99.0455V51.2062C369.218 48.3717 371.557 46 374.482 46H422.912C425.778 46 428.177 48.3139 428.177 51.2062V99.1033C428.118 101.938 425.778 104.252 422.912 104.252ZM374.482 46.4628C371.85 46.4628 369.686 48.6031 369.686 51.2062V99.1033C369.686 101.706 371.85 103.847 374.482 103.847H422.912C425.544 103.847 427.709 101.706 427.709 99.1033V51.2062C427.709 48.6031 425.544 46.4628 422.912 46.4628H374.482Z" fill="#C3CCD7"/>
<path d="M165.144 195.707H116.772C114.023 195.707 111.741 193.509 111.741 190.732V142.835C111.741 140.117 113.964 137.861 116.772 137.861H165.202C167.951 137.861 170.232 140.059 170.232 142.835V190.732C170.174 193.509 167.951 195.707 165.144 195.707Z" fill="white"/>
<path d="M165.144 195.939H116.772C113.906 195.939 111.508 193.625 111.508 190.732V142.835C111.508 140.001 113.847 137.629 116.772 137.629H165.202C168.068 137.629 170.466 139.943 170.466 142.835V190.732C170.408 193.625 168.068 195.939 165.144 195.939ZM116.772 138.15C114.14 138.15 111.976 140.29 111.976 142.893V190.79C111.976 193.393 114.14 195.534 116.772 195.534H165.202C167.834 195.534 169.999 193.393 169.999 190.79V142.893C169.999 140.29 167.834 138.15 165.202 138.15H116.772Z" fill="#C3CCD7"/>
<path d="M229.601 195.707H181.171C178.422 195.707 176.141 193.509 176.141 190.732V142.835C176.141 140.117 178.363 137.861 181.171 137.861H229.601C232.35 137.861 234.631 140.059 234.631 142.835V190.732C234.631 193.509 232.35 195.707 229.601 195.707Z" fill="white"/>
<path d="M229.6 195.939H181.169C178.303 195.939 175.905 193.625 175.905 190.732V142.835C175.905 140.001 178.245 137.629 181.169 137.629H229.6C232.466 137.629 234.864 139.943 234.864 142.835V190.732C234.864 193.625 232.466 195.939 229.6 195.939ZM181.169 138.15C178.537 138.15 176.373 140.29 176.373 142.893V190.79C176.373 193.393 178.537 195.534 181.169 195.534H229.6C232.232 195.534 234.396 193.393 234.396 190.79V142.893C234.396 140.29 232.232 138.15 229.6 138.15H181.169Z" fill="#C3CCD7"/>
<path d="M293.999 195.707H245.569C242.82 195.707 240.538 193.509 240.538 190.732V142.835C240.538 140.117 242.761 137.861 245.569 137.861H293.999C296.748 137.861 299.029 140.059 299.029 142.835V190.732C299.029 193.509 296.807 195.707 293.999 195.707Z" fill="white"/>
<path d="M293.998 195.939H245.568C242.702 195.939 240.303 193.625 240.303 190.732V142.835C240.303 140.001 242.643 137.629 245.568 137.629H293.998C296.864 137.629 299.262 139.943 299.262 142.835V190.732C299.262 193.625 296.922 195.939 293.998 195.939ZM245.626 138.15C242.994 138.15 240.83 140.29 240.83 142.893V190.79C240.83 193.393 242.994 195.534 245.626 195.534H293.998C296.63 195.534 298.794 193.393 298.794 190.79V142.893C298.794 140.29 296.63 138.15 293.998 138.15H245.626Z" fill="#C3CCD7"/>
<path d="M358.456 195.707H310.026C307.277 195.707 304.996 193.509 304.996 190.732V142.835C304.996 140.117 307.219 137.861 310.026 137.861H358.456C361.205 137.861 363.487 140.059 363.487 142.835V190.732C363.487 193.509 361.205 195.707 358.456 195.707Z" fill="white"/>
<path d="M358.455 195.939H310.025C307.159 195.939 304.761 193.625 304.761 190.732V142.835C304.761 140.001 307.1 137.629 310.025 137.629H358.455C361.321 137.629 363.719 139.943 363.719 142.835V190.732C363.719 193.625 361.321 195.939 358.455 195.939ZM310.025 138.15C307.393 138.15 305.229 140.29 305.229 142.893V190.79C305.229 193.393 307.393 195.534 310.025 195.534H358.455C361.087 195.534 363.251 193.393 363.251 190.79V142.893C363.251 140.29 361.087 138.15 358.455 138.15H310.025Z" fill="#C3CCD7"/>
<path d="M422.912 195.707H374.482C371.732 195.707 369.451 193.509 369.451 190.732V142.835C369.451 140.117 371.674 137.861 374.482 137.861H422.912C425.661 137.861 427.942 140.059 427.942 142.835V190.732C427.942 193.509 425.661 195.707 422.912 195.707Z" fill="white"/>
<path d="M422.912 195.939H374.482C371.616 195.939 369.218 193.625 369.218 190.732V142.835C369.218 140.001 371.557 137.629 374.482 137.629H422.912C425.778 137.629 428.177 139.943 428.177 142.835V190.732C428.118 193.625 425.778 195.939 422.912 195.939ZM374.482 138.15C371.85 138.15 369.686 140.29 369.686 142.893V190.79C369.686 193.393 371.85 195.534 374.482 195.534H422.912C425.544 195.534 427.709 193.393 427.709 190.79V142.893C427.709 140.29 425.544 138.15 422.912 138.15H374.482Z" fill="#C3CCD7"/>
<path d="M165.144 287.394H116.772C114.023 287.394 111.741 285.196 111.741 282.42V234.58C111.741 231.861 113.964 229.605 116.772 229.605H165.202C167.951 229.605 170.232 231.804 170.232 234.58V282.477C170.174 285.196 167.951 287.394 165.144 287.394Z" fill="white"/>
<path d="M165.144 287.626H116.772C113.906 287.626 111.508 285.312 111.508 282.42V234.58C111.508 231.746 113.847 229.374 116.772 229.374H165.202C168.068 229.374 170.466 231.688 170.466 234.58V282.477C170.408 285.312 168.068 287.626 165.144 287.626ZM116.772 229.837C114.14 229.837 111.976 231.977 111.976 234.58V282.477C111.976 285.081 114.14 287.221 116.772 287.221H165.202C167.834 287.221 169.999 285.081 169.999 282.477V234.58C169.999 231.977 167.834 229.837 165.202 229.837H116.772Z" fill="#C3CCD7"/>
<path d="M229.601 287.394H181.171C178.422 287.394 176.141 285.196 176.141 282.42V234.58C176.141 231.861 178.363 229.605 181.171 229.605H229.601C232.35 229.605 234.631 231.804 234.631 234.58V282.477C234.631 285.196 232.35 287.394 229.601 287.394Z" fill="white"/>
<path d="M229.6 287.626H181.169C178.303 287.626 175.905 285.312 175.905 282.42V234.58C175.905 231.746 178.245 229.374 181.169 229.374H229.6C232.466 229.374 234.864 231.688 234.864 234.58V282.477C234.864 285.312 232.466 287.626 229.6 287.626ZM181.169 229.837C178.537 229.837 176.373 231.977 176.373 234.58V282.477C176.373 285.081 178.537 287.221 181.169 287.221H229.6C232.232 287.221 234.396 285.081 234.396 282.477V234.58C234.396 231.977 232.232 229.837 229.6 229.837H181.169Z" fill="#C3CCD7"/>
<path d="M293.999 287.394H245.569C242.82 287.394 240.538 285.196 240.538 282.42V234.58C240.538 231.861 242.761 229.605 245.569 229.605H293.999C296.748 229.605 299.029 231.804 299.029 234.58V282.477C299.029 285.196 296.807 287.394 293.999 287.394Z" fill="white"/>
<path d="M293.998 287.626H245.568C242.702 287.626 240.303 285.312 240.303 282.42V234.58C240.303 231.746 242.643 229.374 245.568 229.374H293.998C296.864 229.374 299.262 231.688 299.262 234.58V282.477C299.262 285.312 296.922 287.626 293.998 287.626ZM245.626 229.837C242.994 229.837 240.83 231.977 240.83 234.58V282.477C240.83 285.081 242.994 287.221 245.626 287.221H293.998C296.63 287.221 298.794 285.081 298.794 282.477V234.58C298.794 231.977 296.63 229.837 293.998 229.837H245.626Z" fill="#C3CCD7"/>
<path d="M358.456 287.394H310.026C307.277 287.394 304.996 285.196 304.996 282.42V234.58C304.996 231.861 307.219 229.605 310.026 229.605H358.456C361.205 229.605 363.487 231.804 363.487 234.58V282.477C363.487 285.196 361.205 287.394 358.456 287.394Z" fill="white"/>
<path d="M358.455 287.626H310.025C307.159 287.626 304.761 285.312 304.761 282.42V234.58C304.761 231.746 307.1 229.374 310.025 229.374H358.455C361.321 229.374 363.719 231.688 363.719 234.58V282.477C363.719 285.312 361.321 287.626 358.455 287.626ZM310.025 229.837C307.393 229.837 305.229 231.977 305.229 234.58V282.477C305.229 285.081 307.393 287.221 310.025 287.221H358.455C361.087 287.221 363.251 285.081 363.251 282.477V234.58C363.251 231.977 361.087 229.837 358.455 229.837H310.025Z" fill="#C3CCD7"/>
<path d="M422.912 287.394H374.482C371.732 287.394 369.451 285.196 369.451 282.42V234.58C369.451 231.861 371.674 229.605 374.482 229.605H422.912C425.661 229.605 427.942 231.804 427.942 234.58V282.477C427.942 285.196 425.661 287.394 422.912 287.394Z" fill="white"/>
<path d="M422.912 287.626H374.482C371.616 287.626 369.218 285.312 369.218 282.42V234.58C369.218 231.746 371.557 229.374 374.482 229.374H422.912C425.778 229.374 428.177 231.688 428.177 234.58V282.477C428.118 285.312 425.778 287.626 422.912 287.626ZM374.482 229.837C371.85 229.837 369.686 231.977 369.686 234.58V282.477C369.686 285.081 371.85 287.221 374.482 287.221H422.912C425.544 287.221 427.709 285.081 427.709 282.477V234.58C427.709 231.977 425.544 229.837 422.912 229.837H374.482Z" fill="#C3CCD7"/>
<path d="M165.144 379.082H116.772C114.023 379.082 111.741 376.883 111.741 374.107V326.21C111.741 323.491 113.964 321.235 116.772 321.235H165.202C167.951 321.235 170.232 323.433 170.232 326.21V374.107C170.174 376.883 167.951 379.082 165.144 379.082Z" fill="white"/>
<path d="M165.144 379.313H116.772C113.906 379.313 111.508 376.999 111.508 374.107V326.21C111.508 323.375 113.847 321.003 116.772 321.003H165.202C168.068 321.003 170.466 323.317 170.466 326.21V374.107C170.408 376.999 168.068 379.313 165.144 379.313ZM116.772 321.524C114.14 321.524 111.976 323.664 111.976 326.267V374.165C111.976 376.768 114.14 378.908 116.772 378.908H165.202C167.834 378.908 169.999 376.768 169.999 374.165V326.267C169.999 323.664 167.834 321.524 165.202 321.524H116.772Z" fill="#C3CCD7"/>
<path d="M229.601 379.082H181.171C178.422 379.082 176.141 376.883 176.141 374.107V326.21C176.141 323.491 178.363 321.235 181.171 321.235H229.601C232.35 321.235 234.631 323.433 234.631 326.21V374.107C234.631 376.883 232.35 379.082 229.601 379.082Z" fill="white"/>
<path d="M229.6 379.313H181.169C178.303 379.313 175.905 376.999 175.905 374.107V326.21C175.905 323.375 178.245 321.003 181.169 321.003H229.6C232.466 321.003 234.864 323.317 234.864 326.21V374.107C234.864 376.999 232.466 379.313 229.6 379.313ZM181.169 321.524C178.537 321.524 176.373 323.664 176.373 326.267V374.165C176.373 376.768 178.537 378.908 181.169 378.908H229.6C232.232 378.908 234.396 376.768 234.396 374.165V326.267C234.396 323.664 232.232 321.524 229.6 321.524H181.169Z" fill="#C3CCD7"/>
<path d="M293.999 379.082H245.569C242.82 379.082 240.538 376.883 240.538 374.107V326.21C240.538 323.491 242.761 321.235 245.569 321.235H293.999C296.748 321.235 299.029 323.433 299.029 326.21V374.107C299.029 376.883 296.807 379.082 293.999 379.082Z" fill="white"/>
<path d="M293.998 379.313H245.568C242.702 379.313 240.303 376.999 240.303 374.107V326.21C240.303 323.375 242.643 321.003 245.568 321.003H293.998C296.864 321.003 299.262 323.317 299.262 326.21V374.107C299.262 376.999 296.922 379.313 293.998 379.313ZM245.626 321.524C242.994 321.524 240.83 323.664 240.83 326.267V374.165C240.83 376.768 242.994 378.908 245.626 378.908H293.998C296.63 378.908 298.794 376.768 298.794 374.165V326.267C298.794 323.664 296.63 321.524 293.998 321.524H245.626Z" fill="#C3CCD7"/>
<path d="M358.456 379.082H310.026C307.277 379.082 304.996 376.883 304.996 374.107V326.21C304.996 323.491 307.219 321.235 310.026 321.235H358.456C361.205 321.235 363.487 323.433 363.487 326.21V374.107C363.487 376.883 361.205 379.082 358.456 379.082Z" fill="white"/>
<path d="M358.455 379.313H310.025C307.159 379.313 304.761 376.999 304.761 374.107V326.21C304.761 323.375 307.1 321.003 310.025 321.003H358.455C361.321 321.003 363.719 323.317 363.719 326.21V374.107C363.719 376.999 361.321 379.313 358.455 379.313ZM310.025 321.524C307.393 321.524 305.229 323.664 305.229 326.267V374.165C305.229 376.768 307.393 378.908 310.025 378.908H358.455C361.087 378.908 363.251 376.768 363.251 374.165V326.267C363.251 323.664 361.087 321.524 358.455 321.524H310.025Z" fill="#C3CCD7"/>
<path d="M422.912 379.082H374.482C371.732 379.082 369.451 376.883 369.451 374.107V326.21C369.451 323.491 371.674 321.235 374.482 321.235H422.912C425.661 321.235 427.942 323.433 427.942 326.21V374.107C427.942 376.883 425.661 379.082 422.912 379.082Z" fill="white"/>
<path d="M422.912 379.313H374.482C371.616 379.313 369.218 376.999 369.218 374.107V326.21C369.218 323.375 371.557 321.003 374.482 321.003H422.912C425.778 321.003 428.177 323.317 428.177 326.21V374.107C428.118 376.999 425.778 379.313 422.912 379.313ZM374.482 321.524C371.85 321.524 369.686 323.664 369.686 326.267V374.165C369.686 376.768 371.85 378.908 374.482 378.908H422.912C425.544 378.908 427.709 376.768 427.709 374.165V326.267C427.709 323.664 425.544 321.524 422.912 321.524H374.482Z" fill="#C3CCD7"/>
<path d="M165.144 470.769H116.772C114.023 470.769 111.741 468.57 111.741 465.794V417.955C111.741 415.236 113.964 412.98 116.772 412.98H165.202C167.951 412.98 170.232 415.178 170.232 417.955V465.852C170.174 468.57 167.951 470.769 165.144 470.769Z" fill="white"/>
<path d="M165.144 471H116.772C113.906 471 111.508 468.686 111.508 465.794V417.954C111.508 415.12 113.847 412.748 116.772 412.748H165.202C168.068 412.748 170.466 415.062 170.466 417.954V465.852C170.408 468.686 168.068 471 165.144 471ZM116.772 413.211C114.14 413.211 111.976 415.351 111.976 417.954V465.852C111.976 468.455 114.14 470.595 116.772 470.595H165.202C167.834 470.595 169.999 468.455 169.999 465.852V417.954C169.999 415.351 167.834 413.211 165.202 413.211H116.772Z" fill="#C3CCD7"/>
<path d="M229.601 470.769H181.171C178.422 470.769 176.141 468.57 176.141 465.794V417.955C176.141 415.236 178.363 412.98 181.171 412.98H229.601C232.35 412.98 234.631 415.178 234.631 417.955V465.852C234.631 468.57 232.35 470.769 229.601 470.769Z" fill="white"/>
<path d="M229.6 471H181.169C178.303 471 175.905 468.686 175.905 465.794V417.954C175.905 415.12 178.245 412.748 181.169 412.748H229.6C232.466 412.748 234.864 415.062 234.864 417.954V465.852C234.864 468.686 232.466 471 229.6 471ZM181.169 413.211C178.537 413.211 176.373 415.351 176.373 417.954V465.852C176.373 468.455 178.537 470.595 181.169 470.595H229.6C232.232 470.595 234.396 468.455 234.396 465.852V417.954C234.396 415.351 232.232 413.211 229.6 413.211H181.169Z" fill="#C3CCD7"/>
<path d="M293.999 470.769H245.569C242.82 470.769 240.538 468.57 240.538 465.794V417.955C240.538 415.236 242.761 412.98 245.569 412.98H293.999C296.748 412.98 299.029 415.178 299.029 417.955V465.852C299.029 468.57 296.807 470.769 293.999 470.769Z" fill="white"/>
<path d="M293.998 471H245.568C242.702 471 240.303 468.686 240.303 465.794V417.954C240.303 415.12 242.643 412.748 245.568 412.748H293.998C296.864 412.748 299.262 415.062 299.262 417.954V465.852C299.262 468.686 296.922 471 293.998 471ZM245.626 413.211C242.994 413.211 240.83 415.351 240.83 417.954V465.852C240.83 468.455 242.994 470.595 245.626 470.595H293.998C296.63 470.595 298.794 468.455 298.794 465.852V417.954C298.794 415.351 296.63 413.211 293.998 413.211H245.626Z" fill="#C3CCD7"/>
<path d="M358.456 470.769H310.026C307.277 470.769 304.996 468.57 304.996 465.794V417.955C304.996 415.236 307.219 412.98 310.026 412.98H358.456C361.205 412.98 363.487 415.178 363.487 417.955V465.852C363.487 468.57 361.205 470.769 358.456 470.769Z" fill="white"/>
<path d="M358.455 471H310.025C307.159 471 304.761 468.686 304.761 465.794V417.954C304.761 415.12 307.1 412.748 310.025 412.748H358.455C361.321 412.748 363.719 415.062 363.719 417.954V465.852C363.719 468.686 361.321 471 358.455 471ZM310.025 413.211C307.393 413.211 305.229 415.351 305.229 417.954V465.852C305.229 468.455 307.393 470.595 310.025 470.595H358.455C361.087 470.595 363.251 468.455 363.251 465.852V417.954C363.251 415.351 361.087 413.211 358.455 413.211H310.025Z" fill="#C3CCD7"/>
<path d="M422.913 470.769H374.482C371.733 470.769 369.452 468.57 369.452 465.794V417.955C369.452 415.236 371.675 412.98 374.482 412.98H422.913C425.662 412.98 427.943 415.178 427.943 417.955V465.852C427.943 468.57 425.662 470.769 422.913 470.769Z" fill="white"/>
<path d="M422.912 471H374.482C371.616 471 369.218 468.686 369.218 465.794V417.954C369.218 415.12 371.557 412.748 374.482 412.748H422.912C425.778 412.748 428.177 415.062 428.177 417.954V465.852C428.118 468.686 425.778 471 422.912 471ZM374.482 413.211C371.85 413.211 369.686 415.351 369.686 417.954V465.852C369.686 468.455 371.85 470.595 374.482 470.595H422.912C425.544 470.595 427.709 468.455 427.709 465.852V417.954C427.709 415.351 425.544 413.211 422.912 413.211H374.482Z" fill="#C3CCD7"/>
<path d="M333.714 133.869H333.129V119.465H203.864V107.433H204.449V118.887H333.714V133.869Z" fill="#A3CBEC"/>
<path d="M141.863 224.862H141.278V212.83H333.128V198.426H333.713V213.408H141.863V224.862Z" fill="#A3CBEC"/>
<path d="M205.676 316.202H205.091V304.691H141.278V289.766H141.863V304.112H205.676V316.202Z" fill="#A3CBEC"/>
<path d="M333.188 408.526H332.603V397.072H204.508V382.147H205.093V396.493H333.188V408.526Z" fill="#A3CBEC"/>
<path d="M331.901 420.963H311.897V424.028H331.901V420.963Z" fill="#A3CBEC"/>
<path d="M356.758 461.745H345.177V464.81H356.758V461.745Z" fill="#6EACDE"/>
<path d="M356.642 427.094H311.897V431.259H356.642V427.094Z" fill="white"/>
<path d="M356.818 431.491H311.663V426.921H356.818V431.491ZM312.073 431.028H356.35V427.326H312.073V431.028Z" fill="#D1DBE6"/>
<path d="M356.642 433.284H311.897V437.449H356.642V433.284Z" fill="white"/>
<path d="M356.818 437.622H311.663V433.052H356.818V437.622ZM312.073 437.16H356.35V433.457H312.073V437.16Z" fill="#D1DBE6"/>
<path d="M356.642 439.416H311.897V458.158H356.642V439.416Z" fill="white"/>
<path d="M356.818 458.389H311.663V439.184H356.818V458.389ZM312.073 457.985H356.35V439.647H312.073V457.985Z" fill="#D1DBE6"/>
<path d="M159 421.946H136.013V423.276H159V421.946Z" fill="#D1DBE6"/>
<path d="M124.725 463.48H115.542V464.81H124.725V463.48Z" fill="#D1DBE6"/>
<path d="M159.409 463.48H150.226V464.81H159.409V463.48Z" fill="#D1DBE6"/>
<path d="M139.64 463.48H132.913V464.81H139.64V463.48Z" fill="#D1DBE6"/>
<path d="M144.787 463.48H140.167V464.81H144.787V463.48Z" fill="#D1DBE6"/>
<path d="M160.345 428.251H136.013V428.888H160.345V428.251Z" fill="#D1DBE6"/>
<path d="M158.649 430.102H136.013V430.739H158.649V430.102Z" fill="#D1DBE6"/>
<path d="M161.515 432.011H136.013V432.648H161.515V432.011Z" fill="#D1DBE6"/>
<path d="M155.315 433.862H136.013V434.499H155.315V433.862Z" fill="#D1DBE6"/>
<path d="M133.908 420.153H115.601V438.259H133.908V420.153Z" fill="#A3CBEC"/>
<path d="M128.937 428.598H128.001L125.369 426.284C125.252 426.227 125.135 426.227 125.076 426.284C125.018 426.4 125.018 426.516 125.076 426.574L127.357 428.54H125.778H125.72H125.661H123.38H123.322H123.263H122.152L124.374 426.632C124.491 426.574 124.491 426.4 124.374 426.342C124.316 426.227 124.14 426.227 124.082 426.342L121.45 428.656H120.514C120.397 428.656 120.28 428.772 120.28 428.888C120.28 429.003 120.397 429.119 120.514 429.119H121.274V431.549C121.274 432.127 121.742 432.59 122.327 432.59H127.065C127.65 432.59 128.118 432.127 128.118 431.549V429.119H128.878C128.995 429.119 129.112 429.003 129.112 428.888C129.112 428.714 129.054 428.598 128.937 428.598ZM123.497 430.912V430.276H125.486V430.912H123.497ZM125.486 431.317V432.069H123.497V431.317H125.486ZM123.088 429.813H121.742V429.061H123.088V429.813ZM123.497 429.061H125.486V429.813H123.497V429.061ZM121.742 430.218H123.088V430.854H121.742V430.218ZM125.954 430.218H127.708V430.854H125.954V430.218ZM127.708 429.813H125.954V429.061H127.708V429.813ZM121.742 431.491V431.317H123.088V432.069H122.386C122.035 432.069 121.742 431.838 121.742 431.491ZM127.123 432.069H125.954V431.317H127.708V431.491C127.708 431.838 127.416 432.069 127.123 432.069Z" fill="white"/>
<path d="M131.101 445.952H115.601V461.282H131.101V445.952Z" fill="#A3CBEC"/>
<path d="M126.889 453.125H126.129L123.906 451.159C123.848 451.101 123.731 451.101 123.672 451.159C123.614 451.216 123.614 451.332 123.672 451.39L125.603 453.068H124.257H124.199H124.14H122.21H122.152H122.093H121.157L123.088 451.39C123.146 451.332 123.146 451.216 123.088 451.159C123.029 451.101 122.912 451.101 122.854 451.159L120.631 453.125H119.871C119.754 453.125 119.695 453.183 119.695 453.299C119.695 453.415 119.754 453.473 119.871 453.473H120.514V455.555C120.514 456.018 120.923 456.423 121.391 456.423H125.427C125.895 456.423 126.305 456.018 126.305 455.555V453.473H126.948C127.065 453.473 127.123 453.415 127.123 453.299C127.065 453.183 127.006 453.125 126.889 453.125ZM122.269 455.034V454.456H123.965V455.034H122.269ZM124.023 455.439V456.076H122.327V455.439H124.023ZM121.918 454.167H120.806V453.53H121.918V454.167ZM122.269 453.473H123.965V454.109H122.269V453.473ZM120.806 454.514H121.918V455.092H120.806V454.514ZM124.374 454.514H125.895V455.092H124.374V454.514ZM125.837 454.167H124.374V453.53H125.895V454.167H125.837ZM120.806 455.555V455.439H121.918V456.076H121.274C121.04 456.076 120.806 455.844 120.806 455.555ZM125.369 456.076H124.374V455.439H125.895V455.555C125.837 455.844 125.661 456.076 125.369 456.076Z" fill="white"/>
<path d="M148.414 445.952H132.913V461.282H148.414V445.952Z" fill="#A3CBEC"/>
<path d="M144.202 453.125H143.441L141.219 451.159C141.16 451.101 141.043 451.101 140.985 451.159C140.926 451.216 140.926 451.332 140.985 451.39L142.915 453.068H141.569H141.511H141.452H139.522H139.464H139.405H138.411L140.341 451.39C140.4 451.332 140.4 451.216 140.341 451.159C140.283 451.101 140.166 451.101 140.107 451.159L137.885 453.125H137.124C137.007 453.125 136.949 453.183 136.949 453.299C136.949 453.415 137.007 453.473 137.124 453.473H137.768V455.555C137.768 456.018 138.177 456.423 138.645 456.423H142.681C143.149 456.423 143.558 456.018 143.558 455.555V453.473H144.202C144.319 453.473 144.377 453.415 144.377 453.299C144.377 453.183 144.319 453.125 144.202 453.125ZM139.581 455.034V454.456H141.336V455.034H139.581ZM141.336 455.439V456.076H139.581V455.439H141.336ZM139.23 454.167H138.119V453.53H139.23V454.167ZM139.581 453.473H141.336V454.109H139.581V453.473ZM138.119 454.514H139.23V455.092H138.119V454.514ZM141.686 454.514H143.207V455.092H141.686V454.514ZM143.207 454.167H141.686V453.53H143.207V454.167ZM138.119 455.555V455.439H139.23V456.076H138.586C138.352 456.076 138.119 455.844 138.119 455.555ZM142.681 456.076H141.686V455.439H143.207V455.555C143.207 455.844 142.973 456.076 142.681 456.076Z" fill="white"/>
<path d="M165.726 445.952H150.226V461.282H165.726V445.952Z" fill="#A3CBEC"/>
<path d="M161.515 453.125H160.754L158.532 451.159C158.473 451.101 158.356 451.101 158.298 451.159C158.239 451.216 158.239 451.332 158.298 451.39L160.228 453.068H158.883H158.824H158.766H156.836H156.777H156.719H155.783L157.713 451.39C157.771 451.332 157.771 451.216 157.713 451.159C157.654 451.101 157.537 451.101 157.479 451.159L155.256 453.125H154.496C154.379 453.125 154.32 453.183 154.32 453.299C154.32 453.415 154.379 453.473 154.496 453.473H155.139V455.555C155.139 456.018 155.549 456.423 156.017 456.423H160.053C160.52 456.423 160.93 456.018 160.93 455.555V453.473H161.573C161.69 453.473 161.749 453.415 161.749 453.299C161.69 453.183 161.632 453.125 161.515 453.125ZM156.894 455.034V454.456H158.59V455.034H156.894ZM158.649 455.439V456.076H156.953V455.439H158.649ZM156.543 454.167H155.432V453.53H156.543V454.167ZM156.894 453.473H158.59V454.109H156.894V453.473ZM155.432 454.514H156.543V455.092H155.432V454.514ZM159 454.514H160.52V455.092H159V454.514ZM160.52 454.167H159V453.53H160.52V454.167ZM155.432 455.555V455.439H156.543V456.076H155.958C155.666 456.076 155.432 455.844 155.432 455.555ZM159.994 456.076H159V455.439H160.52V455.555C160.52 455.844 160.286 456.076 159.994 456.076Z" fill="white"/>
<path d="M420.512 442.482H405.129V443.696H420.512V442.482Z" fill="#D1DBE6"/>
<path d="M420.512 432.185H405.129V433.4H420.512V432.185Z" fill="#D1DBE6"/>
<path d="M416.711 420.963H373.604V424.028H416.711V420.963Z" fill="#D1DBE6"/>
<path d="M417.295 445.952H405.129V447.167H417.295V445.952Z" fill="#D1DBE6"/>
<path d="M421.624 452.836H405.129V454.051H421.624V452.836Z" fill="#D1DBE6"/>
<path d="M420.22 456.307H405.129V457.522H420.22V456.307Z" fill="#D1DBE6"/>
<path d="M402.44 429.003H373.604V457.522H402.44V429.003Z" fill="#A3CBEC"/>
<path d="M387.992 450.349C387.875 450.349 387.817 450.291 387.758 450.233C387.583 450.002 382.962 444.391 382.962 441.73C382.962 439.011 385.243 436.755 387.992 436.755C390.741 436.755 393.022 439.011 393.022 441.73C393.022 444.391 388.402 450.002 388.226 450.233C388.168 450.291 388.109 450.349 387.992 450.349ZM387.992 437.391C385.536 437.391 383.547 439.358 383.547 441.787C383.547 443.928 387.056 448.44 387.992 449.597C388.928 448.44 392.438 443.87 392.438 441.787C392.438 439.358 390.449 437.391 387.992 437.391Z" fill="white"/>
<path d="M387.991 443.581C386.704 443.581 385.651 442.539 385.651 441.267C385.651 439.994 386.704 438.953 387.991 438.953C389.278 438.953 390.331 439.994 390.331 441.267C390.331 442.539 389.278 443.581 387.991 443.581ZM387.991 439.531C386.997 439.531 386.236 440.283 386.236 441.267C386.236 442.25 386.997 443.002 387.991 443.002C388.985 443.002 389.746 442.25 389.746 441.267C389.746 440.341 388.985 439.531 387.991 439.531Z" fill="white"/>
<path d="M231.412 430.565H179.356V442.424H231.412V430.565Z" fill="#D1DBE6"/>
<path d="M204.741 447.283V449.886H206.028V447.283H206.613L205.969 446.647L205.384 445.952L204.799 446.647L204.156 447.283H204.741Z" fill="#6EACDE"/>
<path d="M208.19 449.423H202.634V449.886H208.19V449.423Z" fill="#6EACDE"/>
<path d="M231.411 463.48H223.164V466.025H231.411V463.48Z" fill="#6EACDE"/>
<path d="M192.691 421.946H179.356V423.739H192.691V421.946Z" fill="#6EACDE"/>
<path d="M197.488 456.423H179.356V457.406H197.488V456.423Z" fill="#D1DBE6"/>
<path d="M194.622 458.679H179.356V459.662H194.622V458.679Z" fill="#D1DBE6"/>
<path d="M206.904 436.408H205.676V435.193H205.091V436.408H203.862V436.928H205.091V438.201H205.676V436.928H206.904V436.408Z" fill="white"/>
<path d="M279.551 424.144H261.595V460.645H279.551V424.144Z" fill="#6EACDE"/>
<path d="M260.308 426.863H245.042V457.869H260.308V426.863Z" fill="#D1DBE6"/>
<path d="M296.106 426.863H280.839V457.869H296.106V426.863Z" fill="#D1DBE6"/>
<path d="M273.996 428.425H266.392V429.582H273.996V428.425Z" fill="white"/>
<path d="M273.059 456.018H267.444V457.753H273.059V456.018Z" fill="white"/>
<path d="M276.744 437.218H263.7V438.027H276.744V437.218Z" fill="white"/>
<path d="M275.573 439.589H264.811V440.399H275.573V439.589Z" fill="white"/>
<path d="M276.803 441.961H263.584V442.771H276.803V441.961Z" fill="white"/>
<path d="M275.573 444.333H264.811V445.143H275.573V444.333Z" fill="white"/>
<path d="M274.346 446.762H266.099V447.572H274.346V446.762Z" fill="white"/>
<path d="M291.366 431.953H285.576V432.821H291.366V431.953Z" fill="white"/>
<path d="M290.608 452.952H286.338V454.282H290.608V452.952Z" fill="white"/>
<path d="M293.414 438.606H283.471V439.184H293.414V438.606Z" fill="white"/>
<path d="M292.538 440.399H284.349V440.978H292.538V440.399Z" fill="white"/>
<path d="M293.474 442.25H283.413V442.829H293.474V442.25Z" fill="white"/>
<path d="M292.538 444.043H284.349V444.622H292.538V444.043Z" fill="white"/>
<path d="M291.601 445.895H285.284V446.473H291.601V445.895Z" fill="white"/>
<path d="M255.63 431.953H249.84V432.821H255.63V431.953Z" fill="white"/>
<path d="M254.868 452.952H250.598V454.282H254.868V452.952Z" fill="white"/>
<path d="M257.676 438.606H247.733V439.184H257.676V438.606Z" fill="white"/>
<path d="M256.8 440.399H248.611V440.978H256.8V440.399Z" fill="white"/>
<path d="M257.734 442.25H247.673V442.829H257.734V442.25Z" fill="white"/>
<path d="M256.8 444.043H248.611V444.622H256.8V444.043Z" fill="white"/>
<path d="M255.863 445.895H249.546V446.473H255.863V445.895Z" fill="white"/>
<path d="M219.774 147.29H195.384V148.62H219.774V147.29Z" fill="#D1DBE6"/>
<path d="M216.323 150.413H195.384V151.05H216.323V150.413Z" fill="#D1DBE6"/>
<path d="M214.861 151.686H195.384V152.322H214.861V151.686Z" fill="#D1DBE6"/>
<path d="M217.376 153.016H195.384V153.653H217.376V153.016Z" fill="#D1DBE6"/>
<path d="M212.054 154.289H195.384V154.925H212.054V154.289Z" fill="#D1DBE6"/>
<path d="M214.861 163.313H195.384V164.644H214.861V163.313Z" fill="#D1DBE6"/>
<path d="M216.323 166.437H195.384V167.073H216.323V166.437Z" fill="#D1DBE6"/>
<path d="M214.861 167.767H195.384V168.404H214.861V167.767Z" fill="#D1DBE6"/>
<path d="M217.376 169.04H195.384V169.676H217.376V169.04Z" fill="#D1DBE6"/>
<path d="M212.054 170.37H195.384V171.007H212.054V170.37Z" fill="#D1DBE6"/>
<path d="M205.854 179.337H195.384V180.667H205.854V179.337Z" fill="#D1DBE6"/>
<path d="M214.102 179.337H207.609V180.667H214.102V179.337Z" fill="#D1DBE6"/>
<path d="M216.323 182.518H195.384V183.155H216.323V182.518Z" fill="#D1DBE6"/>
<path d="M214.861 183.791H195.384V184.427H214.861V183.791Z" fill="#D1DBE6"/>
<path d="M217.376 185.121H195.384V185.758H217.376V185.121Z" fill="#D1DBE6"/>
<path d="M212.054 186.394H195.384V187.03H212.054V186.394Z" fill="#D1DBE6"/>
<path d="M187.079 157.818C190.47 157.818 193.22 155.098 193.22 151.744C193.22 148.389 190.47 145.67 187.079 145.67C183.687 145.67 180.937 148.389 180.937 151.744C180.937 155.098 183.687 157.818 187.079 157.818Z" fill="#A3CBEC"/>
<path d="M187.079 173.841C190.47 173.841 193.22 171.122 193.22 167.767C193.22 164.413 190.47 161.693 187.079 161.693C183.687 161.693 180.937 164.413 180.937 167.767C180.937 171.122 183.687 173.841 187.079 173.841Z" fill="#A3CBEC"/>
<path d="M187.079 189.865C190.47 189.865 193.22 187.145 193.22 183.791C193.22 180.436 190.47 177.717 187.079 177.717C183.687 177.717 180.937 180.436 180.937 183.791C180.937 187.145 183.687 189.865 187.079 189.865Z" fill="#A3CBEC"/>
<path d="M189.126 152.033L188.131 150.529L187.078 152.033L186.903 152.322L186.084 151.57L185.09 152.554L184.095 153.537H186.084H188.131H190.12L189.126 152.033Z" fill="white"/>
<path d="M185.44 150.587C185.907 150.587 186.317 150.182 186.317 149.719C186.317 149.256 185.907 148.852 185.44 148.852C184.972 148.852 184.562 149.256 184.562 149.719C184.621 150.24 184.972 150.587 185.44 150.587Z" fill="white"/>
<path d="M189.126 168.577L188.131 167.073L187.078 168.577L186.903 168.924L186.084 168.172L185.09 169.098L184.095 170.081H186.084H188.131H190.12L189.126 168.577Z" fill="white"/>
<path d="M185.44 167.189C185.907 167.189 186.317 166.784 186.317 166.321C186.317 165.858 185.907 165.453 185.44 165.453C184.972 165.453 184.562 165.858 184.562 166.321C184.621 166.784 184.972 167.189 185.44 167.189Z" fill="white"/>
<path d="M189.126 184.601L188.131 183.097L187.078 184.601L186.903 184.948L186.084 184.196L185.09 185.179L184.095 186.105H186.084H188.131H190.12L189.126 184.601Z" fill="white"/>
<path d="M185.44 183.212C185.907 183.212 186.317 182.808 186.317 182.345C186.317 181.882 185.907 181.477 185.44 181.477C184.972 181.477 184.562 181.882 184.562 182.345C184.621 182.808 184.972 183.212 185.44 183.212Z" fill="white"/>
<path d="M229.659 153.248H224.629V154.983H229.659V153.248Z" fill="#6EACDE"/>
<path d="M229.659 169.503H224.629V171.238H229.659V169.503Z" fill="#6EACDE"/>
<path d="M229.659 185.758H224.629V187.493H229.659V185.758Z" fill="#6EACDE"/>
<path d="M286.628 165.453H252.937V166.784H286.628V165.453Z" fill="#D1DBE6"/>
<path d="M293.355 171.007H246.328V171.817H293.355V171.007Z" fill="#D1DBE6"/>
<path d="M287.683 173.436H251.945V174.246H287.683V173.436Z" fill="#D1DBE6"/>
<path d="M290.256 175.924H249.371V176.734H290.256V175.924Z" fill="#D1DBE6"/>
<path d="M292.011 178.353H247.616V179.163H292.011V178.353Z" fill="#D1DBE6"/>
<path d="M289.321 180.841H250.249V181.651H289.321V180.841Z" fill="#D1DBE6"/>
<path d="M281.542 183.27H258.087V184.08H281.542V183.27Z" fill="#D1DBE6"/>
<path d="M274.346 188.419H267.034V190.906H274.346V188.419Z" fill="#6EACDE"/>
<path d="M298.853 145.67H240.772V160.363H298.853V145.67Z" fill="#A3CBEC"/>
<path d="M272.766 153.074C273 153.19 273 153.537 272.766 153.653L270.953 154.694L269.14 155.735C268.906 155.851 268.614 155.677 268.614 155.446V153.364V151.281C268.614 150.992 268.906 150.876 269.14 150.992L270.953 152.033L272.766 153.074Z" fill="white"/>
<path d="M350.383 144.281H327.396V145.612H350.383V144.281Z" fill="#D1DBE6"/>
<path d="M351.728 147.405H327.396V148.042H351.728V147.405Z" fill="#D1DBE6"/>
<path d="M350.032 149.256H327.396V149.893H350.032V149.256Z" fill="#D1DBE6"/>
<path d="M352.898 151.165H327.396V151.802H352.898V151.165Z" fill="#D1DBE6"/>
<path d="M346.698 153.016H327.396V153.653H346.698V153.016Z" fill="#D1DBE6"/>
<path d="M352.254 178.932H329.267V180.262H352.254V178.932Z" fill="#D1DBE6"/>
<path d="M353.599 182.055H329.267V182.692H353.599V182.055Z" fill="#D1DBE6"/>
<path d="M351.903 183.906H329.267V184.543H351.903V183.906Z" fill="#D1DBE6"/>
<path d="M354.769 185.815H329.267V186.452H354.769V185.815Z" fill="#D1DBE6"/>
<path d="M348.569 187.667H329.267V188.303H348.569V187.667Z" fill="#D1DBE6"/>
<path d="M340.146 162.272H317.16V163.602H340.146V162.272Z" fill="#D1DBE6"/>
<path d="M340.147 165.396H315.814V166.032H340.147V165.396Z" fill="#D1DBE6"/>
<path d="M340.146 167.247H317.51V167.883H340.146V167.247Z" fill="#D1DBE6"/>
<path d="M340.147 169.156H314.645V169.792H340.147V169.156Z" fill="#D1DBE6"/>
<path d="M340.146 171.007H320.844V171.643H340.146V171.007Z" fill="#D1DBE6"/>
<path d="M325.231 143.53H310.316V158.28H325.231V143.53Z" fill="#A3CBEC"/>
<path d="M359.331 160.016H344.415V174.767H359.331V160.016Z" fill="#A3CBEC"/>
<path d="M325.231 176.502H310.316V191.253H325.231V176.502Z" fill="#A3CBEC"/>
<path d="M319.791 151.686L318.797 150.182L317.744 151.686L317.568 152.033L316.75 151.281L315.755 152.264L314.761 153.19H316.75H318.797H320.785L319.791 151.686Z" fill="white"/>
<path d="M316.104 150.298C316.572 150.298 316.982 149.893 316.982 149.43C316.982 148.967 316.572 148.562 316.104 148.562C315.636 148.562 315.227 148.967 315.227 149.43C315.285 149.893 315.636 150.298 316.104 150.298Z" fill="white"/>
<path d="M353.891 168.172L352.896 166.668L351.902 168.172L351.668 168.519L350.908 167.767L349.855 168.751L348.86 169.676H350.908H352.896H354.943L353.891 168.172Z" fill="white"/>
<path d="M350.204 166.784C350.672 166.784 351.081 166.379 351.081 165.916C351.081 165.454 350.672 165.049 350.204 165.049C349.736 165.049 349.326 165.454 349.326 165.916C349.385 166.379 349.736 166.784 350.204 166.784Z" fill="white"/>
<path d="M319.791 185.411L318.797 183.906L317.744 185.411L317.568 185.7L316.75 185.006L315.755 185.931L314.761 186.915H316.75H318.797H320.785L319.791 185.411Z" fill="white"/>
<path d="M316.104 183.964C316.572 183.964 316.982 183.559 316.982 183.097C316.982 182.634 316.572 182.229 316.104 182.229C315.636 182.229 315.227 182.634 315.227 183.097C315.285 183.617 315.636 183.964 316.104 183.964Z" fill="white"/>
<path d="M418.526 144.282H395.539V145.612H418.526V144.282Z" fill="#D1DBE6"/>
<path d="M419.871 147.405H395.539V148.042H419.871V147.405Z" fill="#D1DBE6"/>
<path d="M418.175 149.256H395.539V149.893H418.175V149.256Z" fill="#D1DBE6"/>
<path d="M421.041 151.165H395.539V151.802H421.041V151.165Z" fill="#D1DBE6"/>
<path d="M414.841 153.016H395.539V153.653H414.841V153.016Z" fill="#D1DBE6"/>
<path d="M418.526 160.999H395.539V162.33H418.526V160.999Z" fill="#D1DBE6"/>
<path d="M415.835 164.123H395.539V164.759H415.835V164.123Z" fill="#D1DBE6"/>
<path d="M408.466 166.032H395.539V166.668H408.466V166.032Z" fill="#D1DBE6"/>
<path d="M421.041 167.883H395.539V168.519H421.041V167.883Z" fill="#D1DBE6"/>
<path d="M410.454 169.792H395.539V170.428H410.454V169.792Z" fill="#D1DBE6"/>
<path d="M418.526 177.717H395.539V179.048H418.526V177.717Z" fill="#D1DBE6"/>
<path d="M412.852 180.899H395.539V181.535H412.852V180.899Z" fill="#D1DBE6"/>
<path d="M417.005 182.75H395.539V183.386H417.005V182.75Z" fill="#D1DBE6"/>
<path d="M413.73 184.659H395.539V185.295H413.73V184.659Z" fill="#D1DBE6"/>
<path d="M409.284 186.51H395.539V187.146H409.284V186.51Z" fill="#D1DBE6"/>
<path d="M390.625 144.282H372.493V190.906H390.625V144.282Z" fill="#A3CBEC"/>
<path d="M383.255 169.098L382.26 167.594L381.266 169.098L381.032 169.387L380.272 168.635L379.219 169.618L378.224 170.544H380.213H380.272H382.26H384.308L383.255 169.098Z" fill="white"/>
<path d="M379.568 167.652C380.036 167.652 380.445 167.247 380.445 166.784C380.445 166.321 380.036 165.916 379.568 165.916C379.1 165.916 378.69 166.321 378.69 166.784C378.749 167.305 379.1 167.652 379.568 167.652Z" fill="white"/>
<path d="M158.534 326.325H123.439V327.771H158.534V326.325Z" fill="#6EACDE"/>
<path d="M151.047 329.507H130.867V330.953H151.047V329.507Z" fill="#6EACDE"/>
<path d="M167.951 335.292H113.906V336.506H167.951V335.292Z" fill="#D1DBE6"/>
<path d="M150.17 338.762H113.906V339.977H150.17V338.762Z" fill="#D1DBE6"/>
<path d="M161.868 342.175H113.906V343.39H161.868V342.175Z" fill="#D1DBE6"/>
<path d="M160.581 345.646H113.906V346.861H160.581V345.646Z" fill="#D1DBE6"/>
<path d="M163.389 349.117H113.906V350.332H163.389V349.117Z" fill="#D1DBE6"/>
<path d="M159.178 352.53H113.906V353.745H159.178V352.53Z" fill="#D1DBE6"/>
<path d="M165.202 359.414H113.906V360.628H165.202V359.414Z" fill="#D1DBE6"/>
<path d="M158.183 362.884H113.906V364.099H158.183V362.884Z" fill="#D1DBE6"/>
<path d="M160.991 366.355H113.906V367.57H160.991V366.355Z" fill="#D1DBE6"/>
<path d="M158.885 369.768H113.906V370.983H158.885V369.768Z" fill="#D1DBE6"/>
<path d="M150.053 373.239H113.906V374.454H150.053V373.239Z" fill="#D1DBE6"/>
<path d="M214.216 344.547H178.42V345.762H214.216V344.547Z" fill="#D1DBE6"/>
<path d="M225.739 347.96H178.42V349.175H225.739V347.96Z" fill="#D1DBE6"/>
<path d="M224.452 351.431H178.42V352.646H224.452V351.431Z" fill="#D1DBE6"/>
<path d="M227.26 354.902H178.42V356.116H227.26V354.902Z" fill="#D1DBE6"/>
<path d="M223.107 358.315H178.42V359.529H223.107V358.315Z" fill="#D1DBE6"/>
<path d="M224.452 365.719H178.42V366.934H224.452V365.719Z" fill="#D1DBE6"/>
<path d="M227.26 369.132H178.42V370.347H227.26V369.132Z" fill="#D1DBE6"/>
<path d="M223.107 372.603H178.42V373.817H223.107V372.603Z" fill="#D1DBE6"/>
<path d="M232.29 328.061H178.42V340.151H232.29V328.061Z" fill="#A3CBEC"/>
<path d="M207.549 335.002L206.438 333.383L205.326 335.002L205.092 335.349L204.273 334.539L203.162 335.581L202.051 336.622H204.273H206.438H208.66L207.549 335.002Z" fill="white"/>
<path d="M203.512 333.44C204.039 333.44 204.448 333.035 204.448 332.515C204.448 331.994 204.039 331.589 203.512 331.589C202.986 331.589 202.576 331.994 202.576 332.515C202.635 333.035 203.044 333.44 203.512 333.44Z" fill="white"/>
<path d="M280.312 342.117H244.516V343.332H280.312V342.117Z" fill="#D1DBE6"/>
<path d="M291.835 345.588H244.516V346.803H291.835V345.588Z" fill="#D1DBE6"/>
<path d="M290.548 349.001H244.516V350.216H290.548V349.001Z" fill="#D1DBE6"/>
<path d="M293.356 352.472H244.516V353.687H293.356V352.472Z" fill="#D1DBE6"/>
<path d="M289.203 355.943H244.516V357.158H289.203V355.943Z" fill="#D1DBE6"/>
<path d="M290.548 363.289H244.516V364.504H290.548V363.289Z" fill="#D1DBE6"/>
<path d="M293.356 366.76H244.516V367.975H293.356V366.76Z" fill="#D1DBE6"/>
<path d="M289.203 370.173H244.516V371.388H289.203V370.173Z" fill="#D1DBE6"/>
<path d="M298.386 328.061H244.516V334.077H298.386V328.061Z" fill="#6EACDE"/>
<path d="M281.833 330.895H257.794V331.994H281.833V330.895Z" fill="white"/>
<path d="M329.971 333.788H309.909V349.001H329.971V333.788Z" fill="#A3CBEC"/>
<path d="M323.594 343.043L322.132 340.845L320.67 343.043L320.319 343.506L319.208 342.465L317.687 343.853L316.225 345.241H319.149H319.208H322.132H325.057L323.594 343.043Z" fill="white"/>
<path d="M318.213 340.961C318.915 340.961 319.441 340.382 319.441 339.746C319.441 339.052 318.856 338.531 318.213 338.531C317.511 338.531 316.984 339.109 316.984 339.746C316.984 340.44 317.569 340.961 318.213 340.961Z" fill="white"/>
<path d="M352.138 333.903H332.076V335.118H352.138V333.903Z" fill="#D1DBE6"/>
<path d="M358.572 337.374H332.076V338.589H358.572V337.374Z" fill="#D1DBE6"/>
<path d="M357.87 340.787H332.076V342.002H357.87V340.787Z" fill="#D1DBE6"/>
<path d="M359.45 344.258H332.076V345.473H359.45V344.258Z" fill="#D1DBE6"/>
<path d="M357.11 347.671H332.076V348.886H357.11V347.671Z" fill="#D1DBE6"/>
<path d="M355.941 353.108H309.909V354.323H355.941V353.108Z" fill="#D1DBE6"/>
<path d="M358.748 356.521H309.909V357.736H358.748V356.521Z" fill="#D1DBE6"/>
<path d="M354.595 359.992H309.909V361.207H354.595V359.992Z" fill="#D1DBE6"/>
<path d="M358.748 367.859H309.909V369.074H358.748V367.859Z" fill="#D1DBE6"/>
<path d="M354.595 371.33H309.909V372.545H354.595V371.33Z" fill="#D1DBE6"/>
<path d="M339.446 328.928H309.909V330.432H339.446V328.928Z" fill="#6EACDE"/>
<path d="M387.701 333.903H372.786V335.118H387.701V333.903Z" fill="#D1DBE6"/>
<path d="M389.632 337.374H372.786V338.589H389.632V337.374Z" fill="#D1DBE6"/>
<path d="M391.971 340.787H372.786V342.002H391.971V340.787Z" fill="#D1DBE6"/>
<path d="M391.971 344.258H372.786V345.473H391.971V344.258Z" fill="#D1DBE6"/>
<path d="M393.2 347.671H372.786V348.886H393.2V347.671Z" fill="#D1DBE6"/>
<path d="M394.837 328.928H372.786V330.432H394.837V328.928Z" fill="#6EACDE"/>
<path d="M418.466 333.903H401.211V335.118H418.466V333.903Z" fill="#D1DBE6"/>
<path d="M420.981 337.374H401.211V338.589H420.981V337.374Z" fill="#D1DBE6"/>
<path d="M419.226 340.787H401.211V342.002H419.226V340.787Z" fill="#D1DBE6"/>
<path d="M421.566 344.258H401.211V345.473H421.566V344.258Z" fill="#D1DBE6"/>
<path d="M419.87 347.671H401.211V348.886H419.87V347.671Z" fill="#D1DBE6"/>
<path d="M387.701 356.29H372.786V357.505H387.701V356.29Z" fill="#D1DBE6"/>
<path d="M380.858 359.761H372.786V360.976H380.858V359.761Z" fill="#D1DBE6"/>
<path d="M391.971 363.174H372.786V364.388H391.971V363.174Z" fill="#D1DBE6"/>
<path d="M387.292 366.645H372.786V367.859H387.292V366.645Z" fill="#D1DBE6"/>
<path d="M391.445 370.057H372.786V371.272H391.445V370.057Z" fill="#D1DBE6"/>
<path d="M420.221 356.29H401.211V357.505H420.221V356.29Z" fill="#D1DBE6"/>
<path d="M416.302 359.761H401.211V360.976H416.302V359.761Z" fill="#D1DBE6"/>
<path d="M420.396 363.174H401.211V364.388H420.396V363.174Z" fill="#D1DBE6"/>
<path d="M421.566 366.645H401.211V367.859H421.566V366.645Z" fill="#D1DBE6"/>
<path d="M419.87 370.057H401.211V371.272H419.87V370.057Z" fill="#D1DBE6"/>
<path d="M423.262 328.928H401.211V330.432H423.262V328.928Z" fill="#6EACDE"/>
<path d="M130.81 155.562H115.31V170.891H130.81V155.562Z" fill="#A3CBEC"/>
<path d="M148.707 155.562H133.207V170.891H148.707V155.562Z" fill="#A3CBEC"/>
<path d="M166.606 155.562H151.106V170.891H166.606V155.562Z" fill="#A3CBEC"/>
<path d="M127.827 172.337H115.31V173.668H127.827V172.337Z" fill="#D1DBE6"/>
<path d="M126.072 175.519H115.31V176.155H126.072V175.519Z" fill="#D1DBE6"/>
<path d="M128.938 176.792H115.31V177.428H128.938V176.792Z" fill="#D1DBE6"/>
<path d="M126.599 178.122H115.31V178.758H126.599V178.122Z" fill="#D1DBE6"/>
<path d="M127.827 179.395H115.31V180.031H127.827V179.395Z" fill="#D1DBE6"/>
<path d="M145.724 172.337H133.207V173.668H145.724V172.337Z" fill="#D1DBE6"/>
<path d="M143.969 175.519H133.207V176.155H143.969V175.519Z" fill="#D1DBE6"/>
<path d="M146.835 176.792H133.207V177.428H146.835V176.792Z" fill="#D1DBE6"/>
<path d="M144.496 178.122H133.207V178.758H144.496V178.122Z" fill="#D1DBE6"/>
<path d="M145.724 179.395H133.207V180.031H145.724V179.395Z" fill="#D1DBE6"/>
<path d="M163.623 172.337H151.106V173.668H163.623V172.337Z" fill="#D1DBE6"/>
<path d="M127.827 151.455H115.31V152.785H127.827V151.455Z" fill="#D1DBE6"/>
<path d="M145.724 151.455H133.207V152.785H145.724V151.455Z" fill="#D1DBE6"/>
<path d="M163.623 151.455H151.106V152.785H163.623V151.455Z" fill="#D1DBE6"/>
<path d="M161.869 175.519H151.106V176.155H161.869V175.519Z" fill="#D1DBE6"/>
<path d="M161.108 176.792H151.106V177.428H161.108V176.792Z" fill="#D1DBE6"/>
<path d="M162.395 178.122H151.106V178.758H162.395V178.122Z" fill="#D1DBE6"/>
<path d="M159.646 179.395H151.106V180.031H159.646V179.395Z" fill="#D1DBE6"/>
<path d="M130.809 183.155H124.609V184.774H130.809V183.155Z" fill="#6EACDE"/>
<path d="M148.708 183.155H142.508V184.774H148.708V183.155Z" fill="#6EACDE"/>
<path d="M166.665 183.155H160.465V184.774H166.665V183.155Z" fill="#6EACDE"/>
<path d="M124.374 162.272C124.374 161.578 123.789 160.941 123.029 160.941C122.268 160.941 121.684 161.52 121.684 162.272C121.684 163.024 122.268 163.602 123.029 163.602C123.789 163.602 124.374 163.024 124.374 162.272Z" fill="white"/>
<path d="M124.082 163.602C123.789 163.834 123.439 164.007 123.029 164.007C122.62 164.007 122.269 163.892 121.976 163.66C121.157 164.181 120.514 165.338 120.28 166.784H125.778C125.544 165.28 124.901 164.123 124.082 163.602Z" fill="white"/>
<path d="M142.275 162.272C142.275 161.578 141.69 160.941 140.929 160.941C140.228 160.941 139.584 161.52 139.584 162.272C139.584 163.024 140.169 163.602 140.929 163.602C141.69 163.602 142.275 163.024 142.275 162.272Z" fill="white"/>
<path d="M141.981 163.602C141.689 163.834 141.338 164.007 140.929 164.007C140.519 164.007 140.168 163.892 139.876 163.66C139.057 164.181 138.414 165.338 138.18 166.784H143.678C143.502 165.28 142.859 164.123 141.981 163.602Z" fill="white"/>
<path d="M160.172 162.272C160.172 161.578 159.587 160.941 158.827 160.941C158.125 160.941 157.481 161.52 157.481 162.272C157.481 163.024 158.066 163.602 158.827 163.602C159.587 163.602 160.172 163.024 160.172 162.272Z" fill="white"/>
<path d="M159.938 163.602C159.646 163.834 159.295 164.007 158.885 164.007C158.476 164.007 158.125 163.892 157.832 163.66C157.014 164.181 156.37 165.338 156.136 166.784H161.634C161.4 165.28 160.757 164.123 159.938 163.602Z" fill="white"/>
<path d="M164.382 286.585H117.531C114.782 286.585 112.618 284.386 112.618 281.725V235.332C112.618 232.614 114.841 230.473 117.531 230.473H164.441C167.19 230.473 169.354 232.671 169.354 235.332V281.725C169.354 284.386 167.131 286.585 164.382 286.585Z" fill="#A3CBEC"/>
<path d="M148.766 261.363L145.14 256.042L141.572 261.363L140.753 262.52L138.004 259.859L134.377 263.272L130.81 266.685H137.945H138.004H145.14H145.198H152.334L148.766 261.363Z" fill="white"/>
<path d="M135.665 256.331C137.361 256.331 138.707 255 138.707 253.323C138.707 251.645 137.361 250.315 135.665 250.315C133.969 250.315 132.624 251.645 132.624 253.323C132.682 255 134.027 256.331 135.665 256.331Z" fill="white"/>
<path d="M120.163 261.016C120.105 261.016 119.988 261.016 119.929 260.959L117.706 258.76C117.589 258.645 117.589 258.471 117.706 258.355L119.929 256.157C120.046 256.042 120.222 256.042 120.339 256.157C120.456 256.273 120.456 256.446 120.339 256.562L118.291 258.587L120.339 260.611C120.456 260.727 120.456 260.901 120.339 261.016C120.339 260.959 120.222 261.016 120.163 261.016Z" fill="white"/>
<path d="M159.295 261.016C159.237 261.016 159.12 261.016 159.061 260.959C158.944 260.843 158.944 260.669 159.061 260.554L161.108 258.529L159.061 256.504C158.944 256.389 158.944 256.215 159.061 256.099C159.178 255.984 159.354 255.984 159.471 256.099L161.693 258.298C161.81 258.413 161.81 258.587 161.693 258.703L159.471 260.901C159.412 260.959 159.354 261.016 159.295 261.016Z" fill="white"/>
<path d="M164.149 282.13H158.534V283.924H164.149V282.13Z" fill="white"/>
<path d="M267.853 238.34H242.936V257.256H267.853V238.34Z" fill="#6EACDE"/>
<path d="M259.959 249.852L258.146 247.133L256.274 249.852L255.865 250.43L254.461 249.1L252.648 250.835L250.835 252.571H254.461H258.146H261.772L259.959 249.852Z" fill="white"/>
<path d="M253.29 247.249C254.168 247.249 254.811 246.555 254.811 245.745C254.811 244.877 254.109 244.241 253.29 244.241C252.413 244.241 251.77 244.935 251.77 245.745C251.77 246.612 252.413 247.249 253.29 247.249Z" fill="white"/>
<path d="M295.871 238.34H270.953V257.256H295.871V238.34Z" fill="#A3CBEC"/>
<path d="M287.975 249.852L286.162 247.133L284.29 249.852L283.881 250.43L282.477 249.1L280.664 250.835L278.851 252.571H282.477H286.162H289.788L287.975 249.852Z" fill="white"/>
<path d="M281.307 247.249C282.184 247.249 282.828 246.555 282.828 245.745C282.828 244.877 282.126 244.241 281.307 244.241C280.43 244.241 279.786 244.935 279.786 245.745C279.786 246.612 280.43 247.249 281.307 247.249Z" fill="white"/>
<path d="M267.853 259.744H242.936V278.66H267.853V259.744Z" fill="#A3CBEC"/>
<path d="M259.959 271.197L258.146 268.479L256.274 271.197L255.865 271.834L254.461 270.503L252.648 272.239L250.835 273.916H254.461H258.146H261.772L259.959 271.197Z" fill="white"/>
<path d="M253.29 268.652C254.168 268.652 254.811 267.958 254.811 267.148C254.811 266.28 254.109 265.644 253.29 265.644C252.413 265.644 251.77 266.338 251.77 267.148C251.77 267.958 252.413 268.652 253.29 268.652Z" fill="white"/>
<path d="M295.871 259.744H270.953V278.66H295.871V259.744Z" fill="#A3CBEC"/>
<path d="M287.975 271.197L286.162 268.479L284.29 271.197L283.881 271.834L282.477 270.503L280.664 272.239L278.851 273.916H282.477H286.162H289.788L287.975 271.197Z" fill="white"/>
<path d="M281.307 268.652C282.184 268.652 282.828 267.958 282.828 267.148C282.828 266.28 282.126 265.644 281.307 265.644C280.43 265.644 279.786 266.338 279.786 267.148C279.786 267.958 280.43 268.652 281.307 268.652Z" fill="white"/>
<path d="M425.252 239.902H371.733V277.04H425.252V239.902Z" fill="#A3CBEC"/>
<path d="M229.952 281.61H224.337V283.403H229.952V281.61Z" fill="#6EACDE"/>
<path d="M229.952 257.95H224.337V259.744H229.952V257.95Z" fill="#6EACDE"/>
<path d="M234.63 237.415H176.14V256.331H234.63V237.415Z" fill="#A3CBEC"/>
<path d="M234.63 261.363H176.14V280.279H234.63V261.363Z" fill="#A3CBEC"/>
<path d="M209.772 248.811L207.257 245.166L204.801 248.811L204.274 249.62L202.344 247.827L199.829 250.141L197.372 252.513H202.344H207.257H207.316H212.229L209.772 248.811Z" fill="white"/>
<path d="M200.707 245.34C201.877 245.34 202.813 244.414 202.813 243.257C202.813 242.1 201.877 241.175 200.707 241.175C199.537 241.175 198.601 242.1 198.601 243.257C198.66 244.414 199.596 245.34 200.707 245.34Z" fill="white"/>
<path d="M209.772 272.412L207.257 268.71L204.801 272.412L204.274 273.222L202.344 271.371L199.829 273.743L197.372 276.057H202.344H207.257H207.316H212.229L209.772 272.412Z" fill="white"/>
<path d="M200.707 268.941C201.877 268.941 202.813 268.016 202.813 266.859C202.813 265.702 201.877 264.776 200.707 264.776C199.537 264.776 198.601 265.702 198.601 266.859C198.66 268.016 199.596 268.941 200.707 268.941Z" fill="white"/>
<path d="M192.694 235.101H179.124V235.911H192.694V235.101Z" fill="#D1DBE6"/>
<path d="M192.694 259.281H179.124V260.091H192.694V259.281Z" fill="#D1DBE6"/>
<path d="M401.621 258.124C401.913 258.298 401.913 258.702 401.621 258.818L399.457 260.033L397.293 261.248C397 261.421 396.649 261.19 396.649 260.901V258.413V255.926C396.649 255.637 397 255.405 397.293 255.579L399.457 256.793L401.621 258.124Z" fill="white"/>
<path d="M398.463 266.57C393.959 266.57 390.274 262.925 390.274 258.471C390.274 254.017 393.959 250.373 398.463 250.373C402.967 250.373 406.652 254.017 406.652 258.471C406.652 262.983 402.967 266.57 398.463 266.57ZM398.463 250.662C394.076 250.662 390.567 254.19 390.567 258.471C390.567 262.81 394.135 266.28 398.463 266.28C402.85 266.28 406.359 262.752 406.359 258.471C406.359 254.19 402.85 250.662 398.463 250.662Z" fill="white"/>
<path d="M323.945 233.366H307.86V258.529H323.945V233.366Z" fill="#A3CBEC"/>
<path d="M342.076 233.366H325.991V250.199H342.076V233.366Z" fill="#A3CBEC"/>
<path d="M342.076 275.825H325.991V284.907H342.076V275.825Z" fill="#A3CBEC"/>
<path d="M323.945 281.378H307.86V284.907H323.945V281.378Z" fill="#A3CBEC"/>
<path d="M360.149 233.366H344.064V253.034H360.149V233.366Z" fill="#A3CBEC"/>
<path d="M318.74 246.612L317.336 244.53L315.874 246.612L315.581 247.075L314.47 246.034L313.066 247.364L311.662 248.753H314.47H317.336H320.144L318.74 246.612Z" fill="white"/>
<path d="M313.592 244.646C314.235 244.646 314.762 244.125 314.762 243.489C314.762 242.852 314.235 242.332 313.592 242.332C312.949 242.332 312.422 242.852 312.422 243.489C312.364 244.125 312.89 244.646 313.592 244.646Z" fill="white"/>
<path d="M336.813 242.505L335.409 240.423L334.005 242.505L333.654 242.968L332.601 241.927L331.139 243.257L329.735 244.646H332.543H332.601H335.409H338.275L336.813 242.505Z" fill="white"/>
<path d="M331.665 240.539C332.308 240.539 332.835 240.018 332.835 239.382C332.835 238.745 332.308 238.225 331.665 238.225C331.022 238.225 330.495 238.745 330.495 239.382C330.437 240.018 331.022 240.539 331.665 240.539Z" fill="white"/>
<path d="M354.944 244.53L353.482 242.39L352.078 244.53L351.785 244.993L350.674 243.952L349.27 245.282L347.808 246.612H350.674H353.482H353.54H356.348L354.944 244.53Z" fill="white"/>
<path d="M349.738 242.505C350.382 242.505 350.908 241.985 350.908 241.348C350.908 240.712 350.382 240.192 349.738 240.192C349.095 240.192 348.568 240.712 348.568 241.348C348.568 241.985 349.095 242.505 349.738 242.505Z" fill="white"/>
<path d="M323.945 259.744H307.86V279.412H323.945V259.744Z" fill="#A3CBEC"/>
<path d="M342.076 251.298H325.991V274.668H342.076V251.298Z" fill="#6EACDE"/>
<path d="M360.149 254.248H344.064V284.849H360.149V254.248Z" fill="#A3CBEC"/>
<path d="M318.74 272.991L317.336 270.908L315.874 272.991L315.581 273.453L314.47 272.412L313.066 273.801L311.662 275.131H314.47H317.336H320.144L318.74 272.991Z" fill="white"/>
<path d="M313.592 271.024C314.235 271.024 314.762 270.503 314.762 269.867C314.762 269.231 314.235 268.71 313.592 268.71C312.949 268.71 312.422 269.231 312.422 269.867C312.364 270.503 312.89 271.024 313.592 271.024Z" fill="white"/>
<path d="M336.813 264.14L335.409 262.057L334.005 264.14L333.654 264.603L332.601 263.562L331.139 264.892L329.735 266.222H332.543H332.601H335.409H338.275L336.813 264.14Z" fill="white"/>
<path d="M331.665 262.173C332.308 262.173 332.835 261.653 332.835 261.016C332.835 260.38 332.308 259.859 331.665 259.859C331.022 259.859 330.495 260.38 330.495 261.016C330.437 261.595 331.022 262.173 331.665 262.173Z" fill="white"/>
<path d="M354.944 270.33L353.482 268.189L352.078 270.33L351.785 270.792L350.674 269.751L349.27 271.082L347.808 272.412H350.674H353.482H353.54H356.348L354.944 270.33Z" fill="white"/>
<path d="M349.738 268.305C350.382 268.305 350.908 267.784 350.908 267.148C350.908 266.512 350.382 265.991 349.738 265.991C349.095 265.991 348.568 266.512 348.568 267.148C348.568 267.784 349.095 268.305 349.738 268.305Z" fill="white"/>
<path d="M425.252 278.428H371.733V280.453H425.252V278.428Z" fill="#6EACDE"/>
<path d="M397.41 278.717H372.142V280.164H397.41V278.717Z" fill="#A3CBEC"/>
<path d="M165.085 103.847H116.83C114.139 103.847 111.917 101.706 111.917 98.9876V51.264C111.917 48.6031 114.081 46.4049 116.83 46.4049H165.085C167.775 46.4049 169.998 48.5452 169.998 51.264V98.9876C169.998 101.649 167.775 103.847 165.085 103.847Z" fill="#A3CBEC"/>
<path d="M146.896 78.1627L143.328 72.8408L139.702 78.1627L138.941 79.3197L136.134 76.6587L132.566 80.0717L128.998 83.4846H136.134H143.328H150.522L146.896 78.1627Z" fill="white"/>
<path d="M133.854 73.1301C135.55 73.1301 136.896 71.7996 136.896 70.122C136.896 68.4445 135.55 67.114 133.854 67.114C132.158 67.114 130.812 68.4445 130.812 70.122C130.812 71.7996 132.158 73.1301 133.854 73.1301Z" fill="white"/>
<path d="M148.825 50.9749H141.923V52.1318H148.825V50.9749Z" fill="white"/>
<path d="M122.563 49.4707H115.661V52.1317H122.563V49.4707Z" fill="white"/>
<path d="M157.423 50.9749H150.521V52.1318H157.423V50.9749Z" fill="white"/>
<path d="M166.021 50.9749H159.119V52.1318H166.021V50.9749Z" fill="white"/>
<path d="M141.221 98.9876V96.3845H139.993V98.9876H139.408L139.993 99.6818L140.578 100.318L141.221 99.6818L141.806 98.9876H141.221Z" fill="white"/>
<path d="M234.63 58.5527H176.14V94.7648H234.63V58.5527Z" fill="#A3CBEC"/>
<path d="M211.353 78.1627L207.726 72.8408L204.158 78.1627L203.398 79.3197L200.59 76.6587L197.023 80.0717L193.396 83.4846H200.59H207.726H207.785H214.921L211.353 78.1627Z" fill="white"/>
<path d="M198.252 73.1301C199.948 73.1301 201.294 71.7996 201.294 70.122C201.294 68.4445 199.948 67.114 198.252 67.114C196.556 67.114 195.211 68.4445 195.211 70.122C195.269 71.7996 196.614 73.1301 198.252 73.1301Z" fill="white"/>
<path d="M213.225 50.9749H206.323V52.1318H213.225V50.9749Z" fill="#6EACDE"/>
<path d="M195.208 97.7728H180.585V98.9298H195.208V97.7728Z" fill="#6EACDE"/>
<path d="M212.698 97.7728H198.075V98.9298H212.698V97.7728Z" fill="#6EACDE"/>
<path d="M230.186 97.7728H215.563V98.9298H230.186V97.7728Z" fill="#6EACDE"/>
<path d="M186.962 49.4708H180.06V52.1318H186.962V49.4708Z" fill="#6EACDE"/>
<path d="M221.821 50.9749H214.919V52.1318H221.821V50.9749Z" fill="#6EACDE"/>
<path d="M230.419 50.9749H223.518V52.1318H230.419V50.9749Z" fill="#6EACDE"/>
<path d="M277.797 50.9749H270.895V52.1318H277.797V50.9749Z" fill="#6EACDE"/>
<path d="M251.593 49.4708H244.691V52.1318H251.593V49.4708Z" fill="#6EACDE"/>
<path d="M286.395 50.9749H279.493V52.1318H286.395V50.9749Z" fill="#6EACDE"/>
<path d="M294.994 50.9749H288.092V52.1318H294.994V50.9749Z" fill="#6EACDE"/>
<path d="M261.478 57.0488H244.691V97.7729H261.478V57.0488Z" fill="#6EACDE"/>
<path d="M278.206 57.0488H261.419V97.7729H278.206V57.0488Z" fill="#A3CBEC"/>
<path d="M294.935 57.0488H278.148V97.7729H294.935V57.0488Z" fill="#6EACDE"/>
<path d="M257.209 77.9893L255.571 75.5597L253.933 77.9893L253.582 78.5099L252.354 77.2951L250.716 78.857L249.079 80.361H252.354H255.571H258.788L257.209 77.9893Z" fill="white"/>
<path d="M251.303 75.6753C252.063 75.6753 252.648 75.0969 252.648 74.3449C252.648 73.5929 252.063 73.0144 251.303 73.0144C250.543 73.0144 249.958 73.5929 249.958 74.3449C249.958 75.0969 250.543 75.6753 251.303 75.6753Z" fill="white"/>
<path d="M273.059 77.9893L271.421 75.5597L269.842 77.9893L269.432 78.5099L268.204 77.2951L266.566 78.857L264.987 80.361H268.204H271.421H274.697L273.059 77.9893Z" fill="white"/>
<path d="M267.151 75.6753C267.911 75.6753 268.496 75.0969 268.496 74.3449C268.496 73.5929 267.911 73.0144 267.151 73.0144C266.39 73.0144 265.806 73.5929 265.806 74.3449C265.806 75.0969 266.39 75.6753 267.151 75.6753Z" fill="white"/>
<path d="M288.91 77.9893L287.273 75.5597L285.693 77.9893L285.342 78.5099L284.056 77.2951L282.476 78.857L280.839 80.361H284.056H287.273H287.331H290.548L288.91 77.9893Z" fill="white"/>
<path d="M283.004 75.6753C283.764 75.6753 284.349 75.0969 284.349 74.3449C284.349 73.5929 283.764 73.0144 283.004 73.0144C282.244 73.0144 281.659 73.5929 281.659 74.3449C281.659 75.0969 282.244 75.6753 283.004 75.6753Z" fill="white"/>
<path d="M342.252 50.9749H335.35V52.1318H342.252V50.9749Z" fill="#6EACDE"/>
<path d="M315.991 49.4708H309.089V52.1318H315.991V49.4708Z" fill="#6EACDE"/>
<path d="M350.852 50.9749H343.95V52.1318H350.852V50.9749Z" fill="#6EACDE"/>
<path d="M359.449 50.9749H352.547V52.1318H359.449V50.9749Z" fill="#6EACDE"/>
<path d="M333.188 58.5527H309.089V75.5597H333.188V58.5527Z" fill="#6EACDE"/>
<path d="M323.887 79.2618H309.089V89.6743H323.887V79.2618Z" fill="#A3CBEC"/>
<path d="M341.668 79.262H326.87V89.6744H341.668V79.262Z" fill="#A3CBEC"/>
<path d="M359.45 79.262H344.651V89.6744H359.45V79.262Z" fill="#A3CBEC"/>
<path d="M359.39 58.5527H335.35V59.7675H359.39V58.5527Z" fill="#D1DBE6"/>
<path d="M357.518 64.0482H335.35V65.0316H357.518V64.0482Z" fill="#D1DBE6"/>
<path d="M352.956 66.5356H335.35V67.519H352.956V66.5356Z" fill="#D1DBE6"/>
<path d="M355.939 69.0229H335.35V70.0063H355.939V69.0229Z" fill="#D1DBE6"/>
<path d="M357.167 71.5105H335.35V72.4939H357.167V71.5105Z" fill="#D1DBE6"/>
<path d="M349.096 73.9978H335.35V74.9812H349.096V73.9978Z" fill="#D1DBE6"/>
<path d="M323.887 91.1205H309.264V91.8725H323.887V91.1205Z" fill="#D1DBE6"/>
<path d="M320.845 92.9138H309.264V93.6658H320.845V92.9138Z" fill="#D1DBE6"/>
<path d="M322.834 94.707H309.264V95.459H322.834V94.707Z" fill="#D1DBE6"/>
<path d="M323.653 96.5002H309.264V97.2522H323.653V96.5002Z" fill="#D1DBE6"/>
<path d="M318.33 98.2935H309.264V99.0455H318.33V98.2935Z" fill="#D1DBE6"/>
<path d="M337.75 91.1205H326.929V91.8725H337.75V91.1205Z" fill="#D1DBE6"/>
<path d="M339.856 92.9138H326.929V93.6658H339.856V92.9138Z" fill="#D1DBE6"/>
<path d="M336.522 94.707H326.929V95.459H336.522V94.707Z" fill="#D1DBE6"/>
<path d="M357.578 91.1205H344.651V91.8725H357.578V91.1205Z" fill="#D1DBE6"/>
<path d="M356.233 92.9138H344.651V93.6658H356.233V92.9138Z" fill="#D1DBE6"/>
<path d="M353.776 94.707H344.651V95.459H353.776V94.707Z" fill="#D1DBE6"/>
<path d="M356.35 96.5002H344.651V97.2522H356.35V96.5002Z" fill="#D1DBE6"/>
<path d="M324.882 68.3289L323.245 65.9572L321.665 68.3289L321.314 68.8495L320.028 67.6926L318.39 69.1966L316.811 70.7584H320.028H323.245H326.52L324.882 68.3289Z" fill="white"/>
<path d="M318.976 66.0728C319.736 66.0728 320.321 65.4943 320.321 64.7423C320.321 63.9903 319.736 63.4119 318.976 63.4119C318.215 63.4119 317.63 63.9903 317.63 64.7423C317.63 65.4943 318.215 66.0728 318.976 66.0728Z" fill="white"/>
<path d="M318.798 85.2779L317.804 83.7739L316.809 85.2779L316.576 85.625L315.757 84.873L314.762 85.7986L313.768 86.782H315.757H317.804H319.851L318.798 85.2779Z" fill="white"/>
<path d="M315.113 83.8318C315.581 83.8318 315.99 83.4269 315.99 82.9641C315.99 82.5014 315.581 82.0964 315.113 82.0964C314.645 82.0964 314.236 82.5014 314.236 82.9641C314.294 83.4848 314.645 83.8318 315.113 83.8318Z" fill="white"/>
<path d="M336.285 85.2779L335.291 83.7739L334.238 85.2779L334.004 85.625L333.244 84.873L332.191 85.7986L331.197 86.782H333.244H335.291H337.28L336.285 85.2779Z" fill="white"/>
<path d="M332.6 83.8318C333.068 83.8318 333.477 83.4269 333.477 82.9641C333.477 82.5014 333.068 82.0964 332.6 82.0964C332.132 82.0964 331.723 82.5014 331.723 82.9641C331.723 83.4848 332.132 83.8318 332.6 83.8318Z" fill="white"/>
<path d="M353.718 85.2779L352.724 83.7739L351.73 85.2779L351.496 85.625L350.677 84.873L349.682 85.7986L348.63 86.782H350.677H352.724H354.771L353.718 85.2779Z" fill="white"/>
<path d="M350.032 83.8318C350.5 83.8318 350.909 83.4269 350.909 82.9641C350.909 82.5014 350.5 82.0964 350.032 82.0964C349.564 82.0964 349.155 82.5014 349.155 82.9641C349.155 83.4848 349.564 83.8318 350.032 83.8318Z" fill="white"/>
<path d="M427.943 58.5527H369.452V94.7648H427.943V58.5527Z" fill="#A3CBEC"/>
<path d="M406.652 50.9749H399.75V52.1318H406.652V50.9749Z" fill="#6EACDE"/>
<path d="M380.447 49.4708H373.546V52.1318H380.447V49.4708Z" fill="#6EACDE"/>
<path d="M415.25 50.9749H408.348V52.1318H415.25V50.9749Z" fill="#6EACDE"/>
<path d="M423.848 50.9749H416.946V52.1318H423.848V50.9749Z" fill="#6EACDE"/>
<path d="M401.68 76.2538C402.031 76.4273 402.031 76.9479 401.68 77.1793L398.931 78.7412L396.182 80.3031C395.831 80.4766 395.421 80.2452 395.421 79.8403V76.6587V73.535C395.421 73.1301 395.831 72.8987 396.182 73.0722L398.931 74.6341L401.68 76.2538Z" fill="white"/>
<path d="M398.17 85.3937C393.315 85.3937 389.338 81.4601 389.338 76.6588C389.338 71.8575 393.315 67.924 398.17 67.924C403.025 67.924 407.002 71.8575 407.002 76.6588C407.002 81.4601 403.025 85.3937 398.17 85.3937ZM398.17 68.2132C393.432 68.2132 389.63 72.0311 389.63 76.6588C389.63 81.3444 393.432 85.1044 398.17 85.1044C402.908 85.1044 406.71 81.2865 406.71 76.6588C406.71 72.0311 402.849 68.2132 398.17 68.2132Z" fill="white"/>
<rect x="72" y="31" width="396" height="455" fill="white"/>
<path fill-rule="evenodd" clip-rule="evenodd" d="M202.19 276.368H191.015V248.401H181V239.879H212.205V248.401H202.19V276.368ZM215.362 265.318H225.64C226.062 267.518 228.724 268.782 231.887 268.782C235.234 268.782 237.29 267.467 237.29 265.672C237.29 263.952 235.814 263.219 231.544 262.486L227.722 261.828C220.158 260.539 216.02 256.872 216.02 251.208C216.02 243.875 222.609 239.247 231.649 239.247C241.823 239.247 247.516 243.774 247.568 250.98H237.29C237.211 248.755 234.838 247.465 231.781 247.465C228.671 247.465 227.09 248.78 227.09 250.424C227.09 252.068 228.724 252.851 232.519 253.509L236.341 254.166C244.511 255.582 248.359 258.794 248.359 264.711C248.359 272.221 242.244 277 231.755 277C221.898 277 215.388 272.777 215.362 265.318ZM279.743 267.846V276.368H252.913V239.879H279.743V248.401H264.088V254.293H278.768V261.98H264.088V267.846H279.743ZM296.526 276.368H285.351V239.879H296.526V255.355H296.736L308.491 239.879H320.219L307.7 256.088L320.799 276.368H307.806L299.504 262.966L296.526 266.809V276.368ZM359.562 276.368H348.387V262.258H334.998V276.368H323.824V239.879H334.998V253.736H348.387V239.879H359.562V276.368Z" fill="#333333"/>
<path d="M323.726 220H359.671V231.951H323.726V220Z" fill="#3454F5"/>
</g>
<defs>
<filter id="filter0_d" x="0" y="0" width="520" height="557" filterUnits="userSpaceOnUse" color-interpolation-filters="sRGB">
<feFlood flood-opacity="0" result="BackgroundImageFix"/>
<feColorMatrix in="SourceAlpha" type="matrix" values="0 0 0 0 0 0 0 0 0 0 0 0 0 0 0 0 0 0 127 0"/>
<feOffset dx="-10" dy="20"/>
<feGaussianBlur stdDeviation="20"/>
<feColorMatrix type="matrix" values="0 0 0 0 0 0 0 0 0 0 0 0 0 0 0 0 0 0 0.15 0"/>
<feBlend mode="normal" in2="BackgroundImageFix" result="effect1_dropShadow"/>
<feBlend mode="normal" in="SourceGraphic" in2="effect1_dropShadow" result="shape"/>
</filter>
</defs>
</svg>
